<svg width="240" height="160" viewBox="0 0 240 160" fill="none" xmlns="http://www.w3.org/2000/svg">
<rect x="0.5" y="0.5" width="239" height="159" rx="5.5" fill="white" stroke="#EAEAEA"/>
<mask id="mask0_0_736" style="mask-type:luminance" maskUnits="userSpaceOnUse" x="0" y="0" width="240" height="160">
<rect x="0.5" y="0.5" width="239" height="159" rx="5.5" fill="white" stroke="white"/>
</mask>
<g mask="url(#mask0_0_736)">
<rect x="185" y="105" width="38" height="38" rx="19" stroke="#FF3E79" stroke-width="2"/>
<path fill-rule="evenodd" clip-rule="evenodd" d="M205.5 124L201.707 120.207C201.317 119.817 201.317 119.183 201.707 118.793L201.793 118.707C202.183 118.317 202.817 118.317 203.207 118.707L207.793 123.293C208.183 123.683 208.183 124.317 207.793 124.707L203.207 129.293C202.817 129.683 202.183 129.683 201.793 129.293L201.707 129.207C201.317 128.817 201.317 128.183 201.707 127.793L205.5 124Z" fill="#FF3E79"/>
<path d="M23.68 28.04C24.5867 28.04 25.04 27.5867 25.04 26.68V24.6C25.04 23.6933 24.5867 23.24 23.68 23.24H19.12V28.04H23.68ZM19.12 29.48V32.76C19.12 32.92 19.04 33 18.88 33H17.84C17.68 33 17.6 32.92 17.6 32.76V22.04C17.6 21.88 17.68 21.8 17.84 21.8H23.68C25.6 21.8 26.56 22.7333 26.56 24.6V26.68C26.56 28.5467 25.6 29.48 23.68 29.48H19.12ZM34.2875 28.2V27.16C34.2875 26.7973 34.1755 26.5093 33.9515 26.296C33.7382 26.072 33.4502 25.96 33.0875 25.96H31.1675C30.8048 25.96 30.5115 26.072 30.2875 26.296C30.0742 26.5093 29.9675 26.7973 29.9675 27.16V28.2H34.2875ZM29.9675 29.48V30.68C29.9675 31.0427 30.0742 31.336 30.2875 31.56C30.5115 31.7733 30.8048 31.88 31.1675 31.88H33.0875C33.4502 31.88 33.7382 31.7733 33.9515 31.56C34.1755 31.336 34.2875 31.0427 34.2875 30.68V30.6C34.2875 30.44 34.3675 30.36 34.5275 30.36H35.4075C35.5675 30.36 35.6475 30.44 35.6475 30.6V30.68C35.6475 31.48 35.4288 32.0933 34.9915 32.52C34.5648 32.9467 33.9302 33.16 33.0875 33.16H31.1675C30.3248 33.16 29.6848 32.9467 29.2475 32.52C28.8208 32.0933 28.6075 31.48 28.6075 30.68V27.16C28.6075 26.36 28.8208 25.7467 29.2475 25.32C29.6848 24.8933 30.3248 24.68 31.1675 24.68H33.0875C33.9302 24.68 34.5648 24.8933 34.9915 25.32C35.4288 25.7467 35.6475 26.36 35.6475 27.16V29.24C35.6475 29.4 35.5675 29.48 35.4075 29.48H29.9675ZM42.4888 31.24L45.3688 25.08C45.4114 24.9947 45.4594 24.936 45.5128 24.904C45.5768 24.8613 45.6888 24.84 45.8488 24.84H46.8088C46.9688 24.84 47.0488 24.92 47.0488 25.08V32.76C47.0488 32.92 46.9688 33 46.8088 33H45.9288C45.7688 33 45.6888 32.92 45.6888 32.76V27.48H45.6088L43.1288 32.76C43.0861 32.8453 43.0328 32.9093 42.9688 32.952C42.9154 32.984 42.8088 33 42.6488 33H42.2488C42.0888 33 41.9768 32.984 41.9128 32.952C41.8594 32.9093 41.8114 32.8453 41.7688 32.76L39.2888 27.48H39.2088V32.76C39.2088 32.92 39.1288 33 38.9688 33H38.0888C37.9288 33 37.8488 32.92 37.8488 32.76V25.08C37.8488 24.92 37.9288 24.84 38.0888 24.84H39.0488C39.2088 24.84 39.3154 24.8613 39.3688 24.904C39.4328 24.936 39.4861 24.9947 39.5288 25.08L42.4088 31.24H42.4888ZM55.0144 27.16C55.0144 26.7973 54.9024 26.5093 54.6784 26.296C54.465 26.072 54.177 25.96 53.8144 25.96H51.8144C51.4517 25.96 51.1584 26.072 50.9344 26.296C50.721 26.5093 50.6144 26.7973 50.6144 27.16V30.68C50.6144 31.0427 50.721 31.336 50.9344 31.56C51.1584 31.7733 51.4517 31.88 51.8144 31.88H53.8144C54.177 31.88 54.465 31.7733 54.6784 31.56C54.9024 31.336 55.0144 31.0427 55.0144 30.68V27.16ZM56.3744 30.68C56.3744 31.48 56.1557 32.0933 55.7184 32.52C55.2917 32.9467 54.657 33.16 53.8144 33.16H51.8144C50.9717 33.16 50.3317 32.9467 49.8944 32.52C49.4677 32.0933 49.2544 31.48 49.2544 30.68V27.16C49.2544 26.36 49.4677 25.7467 49.8944 25.32C50.3317 24.8933 50.9717 24.68 51.8144 24.68H53.8144C54.657 24.68 55.2917 24.8933 55.7184 25.32C56.1557 25.7467 56.3744 26.36 56.3744 27.16V30.68ZM59.9338 29.48V32.76C59.9338 32.92 59.8538 33 59.6938 33H58.8138C58.6538 33 58.5738 32.92 58.5738 32.76V25.08C58.5738 24.92 58.6538 24.84 58.8138 24.84H59.6938C59.8538 24.84 59.9338 24.92 59.9338 25.08V28.28H64.0138V25.08C64.0138 24.92 64.0938 24.84 64.2538 24.84H65.1338C65.2938 24.84 65.3738 24.92 65.3738 25.08V32.76C65.3738 32.92 65.2938 33 65.1338 33H64.2538C64.0938 33 64.0138 32.92 64.0138 32.76V29.48H59.9338ZM69.5731 33C69.4131 33 69.3331 32.92 69.3331 32.76V26.12H66.8531C66.6931 26.12 66.6131 26.04 66.6131 25.88V25.08C66.6131 24.92 66.6931 24.84 66.8531 24.84H73.1731C73.3331 24.84 73.4131 24.92 73.4131 25.08V25.88C73.4131 26.04 73.3331 26.12 73.1731 26.12H70.6931V32.76C70.6931 32.92 70.6131 33 70.4531 33H69.5731ZM83.3412 33C83.1812 33 83.1012 32.92 83.1012 32.76V26.12H79.0212V32.76C79.0212 32.92 78.9412 33 78.7812 33H77.9012C77.7412 33 77.6612 32.92 77.6612 32.76V25.08C77.6612 24.92 77.7412 24.84 77.9012 24.84H84.2212C84.3812 24.84 84.4612 24.92 84.4612 25.08V32.76C84.4612 32.92 84.3812 33 84.2212 33H83.3412ZM88.5006 30.84C88.3406 31.64 88.0686 32.2267 87.6846 32.6C87.3006 32.9733 86.746 33.16 86.0206 33.16H85.7806C85.6206 33.16 85.5406 33.08 85.5406 32.92V32.12C85.5406 31.96 85.6206 31.88 85.7806 31.88H86.0206C86.298 31.88 86.5326 31.7893 86.7246 31.608C86.9273 31.4267 87.066 31.1707 87.1406 30.84L88.3406 25.08C88.3726 24.92 88.506 24.84 88.7406 24.84H93.2206C93.3806 24.84 93.4606 24.92 93.4606 25.08V32.76C93.4606 32.92 93.3806 33 93.2206 33H92.3406C92.1806 33 92.1006 32.92 92.1006 32.76V26.12H89.4606L88.5006 30.84ZM95.5037 30.52C95.5037 28.9733 96.3037 28.2 97.9037 28.2H100.864V27.16C100.864 26.7973 100.752 26.5093 100.528 26.296C100.314 26.072 100.026 25.96 99.6637 25.96H98.5437C98.1811 25.96 97.8877 26.072 97.6637 26.296C97.4504 26.5093 97.3437 26.7973 97.3437 27.16C97.3437 27.32 97.2637 27.4 97.1037 27.4H96.2237C96.0637 27.4 95.9837 27.32 95.9837 27.16C95.9837 26.36 96.1971 25.7467 96.6237 25.32C97.0611 24.8933 97.7011 24.68 98.5437 24.68H99.6637C100.506 24.68 101.141 24.8933 101.568 25.32C102.005 25.7467 102.224 26.36 102.224 27.16V32.76C102.224 32.92 102.144 33 101.984 33H101.104C100.944 33 100.864 32.92 100.864 32.76V32.2H100.784C100.698 32.3813 100.576 32.5413 100.416 32.68C100.277 32.7973 100.096 32.904 99.8717 33C99.6477 33.1067 99.3651 33.16 99.0237 33.16H97.9037C96.3037 33.16 95.5037 32.3867 95.5037 30.84V30.52ZM96.8637 30.84C96.8637 31.16 96.9544 31.416 97.1357 31.608C97.3277 31.7893 97.5837 31.88 97.9037 31.88H99.1837C99.6637 31.88 100.064 31.72 100.384 31.4C100.704 31.08 100.864 30.68 100.864 30.2V29.48H97.9037C97.5837 29.48 97.3277 29.576 97.1357 29.768C96.9544 29.9493 96.8637 30.2 96.8637 30.52V30.84ZM105.937 29.48V32.76C105.937 32.92 105.857 33 105.697 33H104.817C104.657 33 104.577 32.92 104.577 32.76V25.08C104.577 24.92 104.657 24.84 104.817 24.84H105.697C105.857 24.84 105.937 24.92 105.937 25.08V28.28H110.017V25.08C110.017 24.92 110.097 24.84 110.257 24.84H111.137C111.297 24.84 111.377 24.92 111.377 25.08V32.76C111.377 32.92 111.297 33 111.137 33H110.257C110.097 33 110.017 32.92 110.017 32.76V29.48H105.937ZM114.856 24.84C115.016 24.84 115.096 24.92 115.096 25.08V31.72H118.216V25.08C118.216 24.92 118.296 24.84 118.456 24.84H119.336C119.496 24.84 119.576 24.92 119.576 25.08V31.72H122.696V25.08C122.696 24.92 122.776 24.84 122.936 24.84H123.816C123.976 24.84 124.056 24.92 124.056 25.08V32.76C124.056 32.92 123.976 33 123.816 33H113.976C113.816 33 113.736 32.92 113.736 32.76V25.08C113.736 24.92 113.816 24.84 113.976 24.84H114.856ZM131.931 28.2V27.16C131.931 26.7973 131.819 26.5093 131.595 26.296C131.382 26.072 131.094 25.96 130.731 25.96H128.811C128.449 25.96 128.155 26.072 127.931 26.296C127.718 26.5093 127.611 26.7973 127.611 27.16V28.2H131.931ZM127.611 29.48V30.68C127.611 31.0427 127.718 31.336 127.931 31.56C128.155 31.7733 128.449 31.88 128.811 31.88H130.731C131.094 31.88 131.382 31.7733 131.595 31.56C131.819 31.336 131.931 31.0427 131.931 30.68V30.6C131.931 30.44 132.011 30.36 132.171 30.36H133.051C133.211 30.36 133.291 30.44 133.291 30.6V30.68C133.291 31.48 133.073 32.0933 132.635 32.52C132.209 32.9467 131.574 33.16 130.731 33.16H128.811C127.969 33.16 127.329 32.9467 126.891 32.52C126.465 32.0933 126.251 31.48 126.251 30.68V27.16C126.251 26.36 126.465 25.7467 126.891 25.32C127.329 24.8933 127.969 24.68 128.811 24.68H130.731C131.574 24.68 132.209 24.8933 132.635 25.32C133.073 25.7467 133.291 26.36 133.291 27.16V29.24C133.291 29.4 133.211 29.48 133.051 29.48H127.611ZM137.333 33C137.173 33 137.093 32.92 137.093 32.76V26.12H134.613C134.453 26.12 134.373 26.04 134.373 25.88V25.08C134.373 24.92 134.453 24.84 134.613 24.84H140.933C141.093 24.84 141.173 24.92 141.173 25.08V25.88C141.173 26.04 141.093 26.12 140.933 26.12H138.453V32.76C138.453 32.92 138.373 33 138.213 33H137.333ZM148.017 27.16C148.017 26.7973 147.905 26.5093 147.681 26.296C147.468 26.072 147.18 25.96 146.817 25.96H144.817C144.455 25.96 144.161 26.072 143.937 26.296C143.724 26.5093 143.617 26.7973 143.617 27.16V30.68C143.617 31.0427 143.724 31.336 143.937 31.56C144.161 31.7733 144.455 31.88 144.817 31.88H146.817C147.18 31.88 147.468 31.7733 147.681 31.56C147.905 31.336 148.017 31.0427 148.017 30.68V27.16ZM149.377 30.68C149.377 31.48 149.159 32.0933 148.721 32.52C148.295 32.9467 147.66 33.16 146.817 33.16H144.817C143.975 33.16 143.335 32.9467 142.897 32.52C142.471 32.0933 142.257 31.48 142.257 30.68V27.16C142.257 26.36 142.471 25.7467 142.897 25.32C143.335 24.8933 143.975 24.68 144.817 24.68H146.817C147.66 24.68 148.295 24.8933 148.721 25.32C149.159 25.7467 149.377 26.36 149.377 27.16V30.68ZM155.977 31.72C156.297 31.72 156.548 31.6293 156.729 31.448C156.921 31.256 157.017 31 157.017 30.68V30.52C157.017 30.2 156.921 29.9493 156.729 29.768C156.548 29.576 156.297 29.48 155.977 29.48H152.937V31.72H155.977ZM155.497 28.2C155.817 28.2 156.068 28.1093 156.249 27.928C156.441 27.736 156.537 27.48 156.537 27.16C156.537 26.84 156.441 26.5893 156.249 26.408C156.068 26.216 155.817 26.12 155.497 26.12H152.937V28.2H155.497ZM151.817 33C151.657 33 151.577 32.92 151.577 32.76V25.08C151.577 24.92 151.657 24.84 151.817 24.84H155.497C157.097 24.84 157.897 25.6133 157.897 27.16C157.897 27.48 157.838 27.7413 157.721 27.944C157.614 28.136 157.497 28.2907 157.369 28.408C157.22 28.536 157.049 28.6267 156.857 28.68V28.76C157.134 28.8133 157.385 28.9147 157.609 29.064C157.801 29.192 157.977 29.3733 158.137 29.608C158.297 29.8427 158.377 30.1467 158.377 30.52V30.68C158.377 32.2267 157.577 33 155.977 33H151.817Z" fill="#1B1C21"/>
</g>
</svg>
