<svg width="136" height="32" viewBox="0 0 136 32" fill="none" xmlns="http://www.w3.org/2000/svg">
<rect width="136" height="32" rx="16" fill="#FF3E79"/>
<path d="M28.3046 18.02C28.3046 19.42 27.6046 20.12 26.2046 20.12H22.5446C21.1446 20.12 20.4446 19.42 20.4446 18.02V13.58C20.4446 12.18 21.1446 11.48 22.5446 11.48H26.2046C27.6046 11.48 28.3046 12.18 28.3046 13.58V18.02ZM26.3846 13.82C26.3846 13.38 26.1646 13.16 25.7246 13.16H23.0246C22.5846 13.16 22.3646 13.38 22.3646 13.82V17.78C22.3646 18.22 22.5846 18.44 23.0246 18.44H25.7246C26.1646 18.44 26.3846 18.22 26.3846 17.78V13.82ZM33.7336 19.7C33.7336 19.9 33.6336 20 33.4336 20H32.1136C31.9136 20 31.8136 19.9 31.8136 19.7V13.28H29.4136C29.2136 13.28 29.1136 13.18 29.1136 12.98V11.9C29.1136 11.7 29.2136 11.6 29.4136 11.6H36.1336C36.3336 11.6 36.4336 11.7 36.4336 11.9V12.98C36.4336 13.18 36.3336 13.28 36.1336 13.28H33.7336V19.7ZM44.5622 11.6C44.7622 11.6 44.8622 11.7 44.8622 11.9V19.7C44.8622 19.9 44.7622 20 44.5622 20H43.2422C43.0422 20 42.9422 19.9 42.9422 19.7V13.28H39.2822V19.7C39.2822 19.9 39.1822 20 38.9822 20H37.6622C37.4622 20 37.3622 19.9 37.3622 19.7V11.9C37.3622 11.7 37.4622 11.6 37.6622 11.6H44.5622ZM48.5541 17.54V19.7C48.5541 19.9 48.4541 20 48.2541 20H46.9341C46.7341 20 46.6341 19.9 46.6341 19.7V11.9C46.6341 11.7 46.7341 11.6 46.9341 11.6H51.8541C53.2541 11.6 53.9541 12.3 53.9541 13.7V15.44C53.9541 16.84 53.2541 17.54 51.8541 17.54H48.5541ZM48.5541 13.28V15.86H51.3741C51.8141 15.86 52.0341 15.64 52.0341 15.2V13.94C52.0341 13.5 51.8141 13.28 51.3741 13.28H48.5541ZM56.7225 18.26L56.1825 19.7C56.1425 19.788 56.0905 19.86 56.0265 19.916C55.9705 19.972 55.8825 20 55.7625 20H54.2625C54.0625 20 54.0025 19.9 54.0825 19.7L57.0225 11.9C57.1025 11.7 57.2625 11.6 57.5025 11.6H59.2425C59.3625 11.6 59.4505 11.628 59.5065 11.684C59.5705 11.74 59.6225 11.812 59.6625 11.9L62.6025 19.7C62.6825 19.9 62.6225 20 62.4225 20H60.9225C60.8025 20 60.7105 19.972 60.6465 19.916C60.5905 19.86 60.5425 19.788 60.5025 19.7L59.9625 18.26H56.7225ZM59.3625 16.58L58.4025 14H58.2825L57.3225 16.58H59.3625ZM63.5724 11.9C63.5724 11.7 63.6724 11.6 63.8724 11.6H68.3724C69.7724 11.6 70.4724 12.3 70.4724 13.7V14.12C70.4724 14.408 70.4284 14.64 70.3404 14.816C70.2524 14.984 70.1564 15.116 70.0524 15.212C69.9244 15.324 69.7844 15.4 69.6324 15.44V15.56C69.8724 15.608 70.0924 15.696 70.2924 15.824C70.4524 15.936 70.6004 16.096 70.7364 16.304C70.8804 16.504 70.9524 16.776 70.9524 17.12V17.9C70.9524 19.3 70.2524 20 68.8524 20H63.8724C63.6724 20 63.5724 19.9 63.5724 19.7V11.9ZM68.3724 18.32C68.8124 18.32 69.0324 18.1 69.0324 17.66V17.12C69.0324 16.68 68.8124 16.46 68.3724 16.46H65.4924V18.32H68.3724ZM65.4924 13.28V14.78H67.8924C68.3324 14.78 68.5524 14.56 68.5524 14.12V13.94C68.5524 13.5 68.3324 13.28 67.8924 13.28H65.4924ZM78.0038 14.54L74.7638 19.7C74.6998 19.788 74.6318 19.86 74.5598 19.916C74.4958 19.972 74.4038 20 74.2838 20H72.6638C72.4638 20 72.3638 19.9 72.3638 19.7V11.9C72.3638 11.7 72.4638 11.6 72.6638 11.6H73.9838C74.1838 11.6 74.2838 11.7 74.2838 11.9V17.06H74.4038L77.6438 11.9C77.7078 11.812 77.7718 11.74 77.8358 11.684C77.9078 11.628 78.0038 11.6 78.1238 11.6H79.7438C79.9438 11.6 80.0438 11.7 80.0438 11.9V19.7C80.0438 19.9 79.9438 20 79.7438 20H78.4238C78.2238 20 78.1238 19.9 78.1238 19.7V14.54H78.0038ZM85.5915 19.7C85.5915 19.9 85.4915 20 85.2915 20H83.9715C83.7715 20 83.6715 19.9 83.6715 19.7V13.28H81.2715C81.0715 13.28 80.9715 13.18 80.9715 12.98V11.9C80.9715 11.7 81.0715 11.6 81.2715 11.6H87.9915C88.1915 11.6 88.2915 11.7 88.2915 11.9V12.98C88.2915 13.18 88.1915 13.28 87.9915 13.28H85.5915V19.7ZM94.32 14.12C95.72 14.12 96.42 14.82 96.42 16.22V17.9C96.42 19.3 95.72 20 94.32 20H89.52C89.32 20 89.22 19.9 89.22 19.7V11.9C89.22 11.7 89.32 11.6 89.52 11.6H90.84C91.04 11.6 91.14 11.7 91.14 11.9V14.12H94.32ZM93.84 18.32C94.28 18.32 94.5 18.1 94.5 17.66V16.46C94.5 16.02 94.28 15.8 93.84 15.8H91.14V18.32H93.84Z" fill="white"/>
<rect x="99.4286" y="4" width="27.4286" height="24" rx="12" fill="#FF3E79"/>
<path fill-rule="evenodd" clip-rule="evenodd" d="M114.057 15.9999L110.672 13.2717C110.178 12.8736 110.175 12.1222 110.665 11.7199L110.913 11.517C111.28 11.216 111.808 11.2144 112.176 11.5131L117.622 15.9254C117.67 15.9638 117.67 16.0361 117.622 16.0745L112.275 20.4064C111.849 20.752 111.238 20.7501 110.814 20.402C110.247 19.9367 110.251 19.0678 110.822 18.6074L114.057 15.9999Z" fill="white"/>
</svg>
