<svg width="240" height="160" viewBox="0 0 240 160" fill="none" xmlns="http://www.w3.org/2000/svg">
<rect x="0.5" y="0.5" width="239" height="159" rx="5.5" fill="white" stroke="#EAEAEA"/>
<mask id="mask0_0_557" style="mask-type:luminance" maskUnits="userSpaceOnUse" x="0" y="0" width="240" height="160">
<rect x="0.5" y="0.5" width="239" height="159" rx="5.5" fill="white" stroke="white"/>
</mask>
<g mask="url(#mask0_0_557)">
<rect x="185" y="105" width="38" height="38" rx="19" stroke="#FF3E79" stroke-width="2"/>
<path fill-rule="evenodd" clip-rule="evenodd" d="M205.5 124L201.707 120.207C201.317 119.817 201.317 119.183 201.707 118.793L201.793 118.707C202.183 118.317 202.817 118.317 203.207 118.707L207.793 123.293C208.183 123.683 208.183 124.317 207.793 124.707L203.207 129.293C202.817 129.683 202.183 129.683 201.793 129.293L201.707 129.207C201.317 128.817 201.317 128.183 201.707 127.793L205.5 124Z" fill="#FF3E79"/>
<path d="M23.68 28.04C24.5867 28.04 25.04 27.5867 25.04 26.68V24.6C25.04 23.6933 24.5867 23.24 23.68 23.24H19.12V28.04H23.68ZM19.12 29.48V32.76C19.12 32.92 19.04 33 18.88 33H17.84C17.68 33 17.6 32.92 17.6 32.76V22.04C17.6 21.88 17.68 21.8 17.84 21.8H23.68C25.6 21.8 26.56 22.7333 26.56 24.6V26.68C26.56 28.5467 25.6 29.48 23.68 29.48H19.12ZM34.2875 28.2V27.16C34.2875 26.7973 34.1755 26.5093 33.9515 26.296C33.7382 26.072 33.4502 25.96 33.0875 25.96H31.1675C30.8048 25.96 30.5115 26.072 30.2875 26.296C30.0742 26.5093 29.9675 26.7973 29.9675 27.16V28.2H34.2875ZM29.9675 29.48V30.68C29.9675 31.0427 30.0742 31.336 30.2875 31.56C30.5115 31.7733 30.8048 31.88 31.1675 31.88H33.0875C33.4502 31.88 33.7382 31.7733 33.9515 31.56C34.1755 31.336 34.2875 31.0427 34.2875 30.68V30.6C34.2875 30.44 34.3675 30.36 34.5275 30.36H35.4075C35.5675 30.36 35.6475 30.44 35.6475 30.6V30.68C35.6475 31.48 35.4288 32.0933 34.9915 32.52C34.5648 32.9467 33.9302 33.16 33.0875 33.16H31.1675C30.3248 33.16 29.6848 32.9467 29.2475 32.52C28.8208 32.0933 28.6075 31.48 28.6075 30.68V27.16C28.6075 26.36 28.8208 25.7467 29.2475 25.32C29.6848 24.8933 30.3248 24.68 31.1675 24.68H33.0875C33.9302 24.68 34.5648 24.8933 34.9915 25.32C35.4288 25.7467 35.6475 26.36 35.6475 27.16V29.24C35.6475 29.4 35.5675 29.48 35.4075 29.48H29.9675ZM42.4888 31.24L45.3688 25.08C45.4114 24.9947 45.4594 24.936 45.5128 24.904C45.5768 24.8613 45.6888 24.84 45.8488 24.84H46.8088C46.9688 24.84 47.0488 24.92 47.0488 25.08V32.76C47.0488 32.92 46.9688 33 46.8088 33H45.9288C45.7688 33 45.6888 32.92 45.6888 32.76V27.48H45.6088L43.1288 32.76C43.0861 32.8453 43.0328 32.9093 42.9688 32.952C42.9154 32.984 42.8088 33 42.6488 33H42.2488C42.0888 33 41.9768 32.984 41.9128 32.952C41.8594 32.9093 41.8114 32.8453 41.7688 32.76L39.2888 27.48H39.2088V32.76C39.2088 32.92 39.1288 33 38.9688 33H38.0888C37.9288 33 37.8488 32.92 37.8488 32.76V25.08C37.8488 24.92 37.9288 24.84 38.0888 24.84H39.0488C39.2088 24.84 39.3154 24.8613 39.3688 24.904C39.4328 24.936 39.4861 24.9947 39.5288 25.08L42.4088 31.24H42.4888ZM55.0144 27.16C55.0144 26.7973 54.9024 26.5093 54.6784 26.296C54.465 26.072 54.177 25.96 53.8144 25.96H51.8144C51.4517 25.96 51.1584 26.072 50.9344 26.296C50.721 26.5093 50.6144 26.7973 50.6144 27.16V30.68C50.6144 31.0427 50.721 31.336 50.9344 31.56C51.1584 31.7733 51.4517 31.88 51.8144 31.88H53.8144C54.177 31.88 54.465 31.7733 54.6784 31.56C54.9024 31.336 55.0144 31.0427 55.0144 30.68V27.16ZM56.3744 30.68C56.3744 31.48 56.1557 32.0933 55.7184 32.52C55.2917 32.9467 54.657 33.16 53.8144 33.16H51.8144C50.9717 33.16 50.3317 32.9467 49.8944 32.52C49.4677 32.0933 49.2544 31.48 49.2544 30.68V27.16C49.2544 26.36 49.4677 25.7467 49.8944 25.32C50.3317 24.8933 50.9717 24.68 51.8144 24.68H53.8144C54.657 24.68 55.2917 24.8933 55.7184 25.32C56.1557 25.7467 56.3744 26.36 56.3744 27.16V30.68ZM59.9338 29.48V32.76C59.9338 32.92 59.8538 33 59.6938 33H58.8138C58.6538 33 58.5738 32.92 58.5738 32.76V25.08C58.5738 24.92 58.6538 24.84 58.8138 24.84H59.6938C59.8538 24.84 59.9338 24.92 59.9338 25.08V28.28H64.0138V25.08C64.0138 24.92 64.0938 24.84 64.2538 24.84H65.1338C65.2938 24.84 65.3738 24.92 65.3738 25.08V32.76C65.3738 32.92 65.2938 33 65.1338 33H64.2538C64.0938 33 64.0138 32.92 64.0138 32.76V29.48H59.9338ZM69.5731 33C69.4131 33 69.3331 32.92 69.3331 32.76V26.12H66.8531C66.6931 26.12 66.6131 26.04 66.6131 25.88V25.08C66.6131 24.92 66.6931 24.84 66.8531 24.84H73.1731C73.3331 24.84 73.4131 24.92 73.4131 25.08V25.88C73.4131 26.04 73.3331 26.12 73.1731 26.12H70.6931V32.76C70.6931 32.92 70.6131 33 70.4531 33H69.5731ZM79.0212 29.48V32.76C79.0212 32.92 78.9412 33 78.7812 33H77.9012C77.7412 33 77.6612 32.92 77.6612 32.76V25.08C77.6612 24.92 77.7412 24.84 77.9012 24.84H78.7812C78.9412 24.84 79.0212 24.92 79.0212 25.08V28.28H83.1012V25.08C83.1012 24.92 83.1812 24.84 83.3412 24.84H84.2212C84.3812 24.84 84.4612 24.92 84.4612 25.08V32.76C84.4612 32.92 84.3812 33 84.2212 33H83.3412C83.1812 33 83.1012 32.92 83.1012 32.76V29.48H79.0212ZM92.4206 27.16C92.4206 26.7973 92.3086 26.5093 92.0846 26.296C91.8713 26.072 91.5833 25.96 91.2206 25.96H89.2206C88.858 25.96 88.5646 26.072 88.3406 26.296C88.1273 26.5093 88.0206 26.7973 88.0206 27.16V30.68C88.0206 31.0427 88.1273 31.336 88.3406 31.56C88.5646 31.7733 88.858 31.88 89.2206 31.88H91.2206C91.5833 31.88 91.8713 31.7733 92.0846 31.56C92.3086 31.336 92.4206 31.0427 92.4206 30.68V27.16ZM93.7806 30.68C93.7806 31.48 93.562 32.0933 93.1246 32.52C92.698 32.9467 92.0633 33.16 91.2206 33.16H89.2206C88.378 33.16 87.738 32.9467 87.3006 32.52C86.874 32.0933 86.6606 31.48 86.6606 30.68V27.16C86.6606 26.36 86.874 25.7467 87.3006 25.32C87.738 24.8933 88.378 24.68 89.2206 24.68H91.2206C92.0633 24.68 92.698 24.8933 93.1246 25.32C93.562 25.7467 93.7806 26.36 93.7806 27.16V30.68ZM101.052 25.08C101.084 24.9947 101.127 24.936 101.18 24.904C101.244 24.8613 101.335 24.84 101.452 24.84H102.412C102.583 24.84 102.636 24.92 102.572 25.08L99.452 33C99.228 33.5653 99.0093 34.04 98.796 34.424C98.5827 34.808 98.3533 35.1173 98.108 35.352C97.8627 35.5973 97.596 35.7733 97.308 35.88C97.02 35.9867 96.6947 36.04 96.332 36.04H96.012C95.852 36.04 95.772 35.96 95.772 35.8V35C95.772 34.84 95.852 34.76 96.012 34.76H96.332C96.7373 34.76 97.068 34.6267 97.324 34.36C97.5907 34.0933 97.8467 33.64 98.092 33L94.972 25.08C94.908 24.92 94.9613 24.84 95.132 24.84H96.092C96.2093 24.84 96.2947 24.8613 96.348 24.904C96.412 24.936 96.46 24.9947 96.492 25.08L98.732 31.08H98.812L101.052 25.08ZM105.761 33C105.601 33 105.521 32.92 105.521 32.76V26.12H103.041C102.881 26.12 102.801 26.04 102.801 25.88V25.08C102.801 24.92 102.881 24.84 103.041 24.84H109.361C109.521 24.84 109.601 24.92 109.601 25.08V25.88C109.601 26.04 109.521 26.12 109.361 26.12H106.881V32.76C106.881 32.92 106.801 33 106.641 33H105.761ZM112.046 30.68C112.046 31.0427 112.152 31.336 112.366 31.56C112.59 31.7733 112.883 31.88 113.246 31.88H115.006C115.368 31.88 115.656 31.7733 115.87 31.56C116.094 31.336 116.206 31.0427 116.206 30.68V28.6C116.206 28.2373 116.094 27.9493 115.87 27.736C115.656 27.512 115.368 27.4 115.006 27.4H112.046V30.68ZM110.686 25.48C110.686 23.8693 111.539 22.9893 113.246 22.84L115.166 22.68C115.411 22.6587 115.592 22.584 115.71 22.456C115.827 22.328 115.886 22.1627 115.886 21.96V21.88C115.886 21.72 115.966 21.64 116.126 21.64H117.006C117.166 21.64 117.246 21.72 117.246 21.88V21.96C117.246 22.6427 117.08 23.1493 116.75 23.48C116.419 23.8 115.891 23.9867 115.166 24.04L113.246 24.2C112.883 24.232 112.59 24.3653 112.366 24.6C112.152 24.824 112.046 25.1173 112.046 25.48V26.12H115.006C115.848 26.12 116.483 26.3333 116.91 26.76C117.347 27.1867 117.566 27.8 117.566 28.6V30.68C117.566 31.48 117.347 32.0933 116.91 32.52C116.483 32.9467 115.848 33.16 115.006 33.16H113.246C112.403 33.16 111.763 32.9467 111.326 32.52C110.899 32.0933 110.686 31.48 110.686 30.68V25.48ZM124.514 25.08C124.546 24.9947 124.589 24.936 124.642 24.904C124.706 24.8613 124.797 24.84 124.914 24.84H125.874C126.045 24.84 126.098 24.92 126.034 25.08L122.914 33C122.69 33.5653 122.472 34.04 122.258 34.424C122.045 34.808 121.816 35.1173 121.57 35.352C121.325 35.5973 121.058 35.7733 120.77 35.88C120.482 35.9867 120.157 36.04 119.794 36.04H119.474C119.314 36.04 119.234 35.96 119.234 35.8V35C119.234 34.84 119.314 34.76 119.474 34.76H119.794C120.2 34.76 120.53 34.6267 120.786 34.36C121.053 34.0933 121.309 33.64 121.554 33L118.434 25.08C118.37 24.92 118.424 24.84 118.594 24.84H119.554C119.672 24.84 119.757 24.8613 119.81 24.904C119.874 24.936 119.922 24.9947 119.954 25.08L122.194 31.08H122.274L124.514 25.08ZM130.743 29.32H128.743V32.76C128.743 32.92 128.663 33 128.503 33H127.623C127.463 33 127.383 32.92 127.383 32.76V25.08C127.383 24.92 127.463 24.84 127.623 24.84H128.503C128.663 24.84 128.743 24.92 128.743 25.08V28.04H130.743L132.343 25.08C132.386 24.9947 132.434 24.936 132.487 24.904C132.54 24.8613 132.626 24.84 132.743 24.84H133.703C133.884 24.84 133.938 24.92 133.863 25.08L131.863 28.68L134.103 32.76C134.178 32.92 134.124 33 133.943 33H132.983C132.866 33 132.78 32.984 132.727 32.952C132.674 32.9093 132.626 32.8453 132.583 32.76L130.743 29.32ZM140.986 27.16C140.986 26.7973 140.874 26.5093 140.65 26.296C140.437 26.072 140.149 25.96 139.786 25.96H137.786C137.424 25.96 137.13 26.072 136.906 26.296C136.693 26.5093 136.586 26.7973 136.586 27.16V30.68C136.586 31.0427 136.693 31.336 136.906 31.56C137.13 31.7733 137.424 31.88 137.786 31.88H139.786C140.149 31.88 140.437 31.7733 140.65 31.56C140.874 31.336 140.986 31.0427 140.986 30.68V27.16ZM142.346 30.68C142.346 31.48 142.128 32.0933 141.69 32.52C141.264 32.9467 140.629 33.16 139.786 33.16H137.786C136.944 33.16 136.304 32.9467 135.866 32.52C135.44 32.0933 135.226 31.48 135.226 30.68V27.16C135.226 26.36 135.44 25.7467 135.866 25.32C136.304 24.8933 136.944 24.68 137.786 24.68H139.786C140.629 24.68 141.264 24.8933 141.69 25.32C142.128 25.7467 142.346 26.36 142.346 27.16V30.68ZM148.946 31.72C149.266 31.72 149.516 31.6293 149.698 31.448C149.89 31.256 149.986 31 149.986 30.68V30.52C149.986 30.2 149.89 29.9493 149.698 29.768C149.516 29.576 149.266 29.48 148.946 29.48H145.906V31.72H148.946ZM148.466 28.2C148.786 28.2 149.036 28.1093 149.218 27.928C149.41 27.736 149.506 27.48 149.506 27.16C149.506 26.84 149.41 26.5893 149.218 26.408C149.036 26.216 148.786 26.12 148.466 26.12H145.906V28.2H148.466ZM144.786 33C144.626 33 144.546 32.92 144.546 32.76V25.08C144.546 24.92 144.626 24.84 144.786 24.84H148.466C150.066 24.84 150.866 25.6133 150.866 27.16C150.866 27.48 150.807 27.7413 150.69 27.944C150.583 28.136 150.466 28.2907 150.338 28.408C150.188 28.536 150.018 28.6267 149.826 28.68V28.76C150.103 28.8133 150.354 28.9147 150.578 29.064C150.77 29.192 150.946 29.3733 151.106 29.608C151.266 29.8427 151.346 30.1467 151.346 30.52V30.68C151.346 32.2267 150.546 33 148.946 33H144.786Z" fill="#1B1C21"/>
</g>
</svg>
