<svg width="240" height="160" viewBox="0 0 240 160" fill="none" xmlns="http://www.w3.org/2000/svg">
<rect x="0.5" y="0.5" width="239" height="159" rx="5.5" fill="white" stroke="#EAEAEA"/>
<mask id="mask0_0_767" style="mask-type:luminance" maskUnits="userSpaceOnUse" x="0" y="0" width="240" height="160">
<rect x="0.5" y="0.5" width="239" height="159" rx="5.5" fill="white" stroke="white"/>
</mask>
<g mask="url(#mask0_0_767)">
<rect x="185" y="105" width="38" height="38" rx="19" stroke="#FF3E79" stroke-width="2"/>
<path fill-rule="evenodd" clip-rule="evenodd" d="M205.5 124L201.707 120.207C201.317 119.817 201.317 119.183 201.707 118.793L201.793 118.707C202.183 118.317 202.817 118.317 203.207 118.707L207.793 123.293C208.183 123.683 208.183 124.317 207.793 124.707L203.207 129.293C202.817 129.683 202.183 129.683 201.793 129.293L201.707 129.207C201.317 128.817 201.317 128.183 201.707 127.793L205.5 124Z" fill="#FF3E79"/>
<path d="M23.68 28.04C24.5867 28.04 25.04 27.5867 25.04 26.68V24.6C25.04 23.6933 24.5867 23.24 23.68 23.24H19.12V28.04H23.68ZM19.12 29.48V32.76C19.12 32.92 19.04 33 18.88 33H17.84C17.68 33 17.6 32.92 17.6 32.76V22.04C17.6 21.88 17.68 21.8 17.84 21.8H23.68C25.6 21.8 26.56 22.7333 26.56 24.6V26.68C26.56 28.5467 25.6 29.48 23.68 29.48H19.12ZM34.2875 28.2V27.16C34.2875 26.7973 34.1755 26.5093 33.9515 26.296C33.7382 26.072 33.4502 25.96 33.0875 25.96H31.1675C30.8048 25.96 30.5115 26.072 30.2875 26.296C30.0742 26.5093 29.9675 26.7973 29.9675 27.16V28.2H34.2875ZM29.9675 29.48V30.68C29.9675 31.0427 30.0742 31.336 30.2875 31.56C30.5115 31.7733 30.8048 31.88 31.1675 31.88H33.0875C33.4502 31.88 33.7382 31.7733 33.9515 31.56C34.1755 31.336 34.2875 31.0427 34.2875 30.68V30.6C34.2875 30.44 34.3675 30.36 34.5275 30.36H35.4075C35.5675 30.36 35.6475 30.44 35.6475 30.6V30.68C35.6475 31.48 35.4288 32.0933 34.9915 32.52C34.5648 32.9467 33.9302 33.16 33.0875 33.16H31.1675C30.3248 33.16 29.6848 32.9467 29.2475 32.52C28.8208 32.0933 28.6075 31.48 28.6075 30.68V27.16C28.6075 26.36 28.8208 25.7467 29.2475 25.32C29.6848 24.8933 30.3248 24.68 31.1675 24.68H33.0875C33.9302 24.68 34.5648 24.8933 34.9915 25.32C35.4288 25.7467 35.6475 26.36 35.6475 27.16V29.24C35.6475 29.4 35.5675 29.48 35.4075 29.48H29.9675ZM42.4888 31.24L45.3688 25.08C45.4114 24.9947 45.4594 24.936 45.5128 24.904C45.5768 24.8613 45.6888 24.84 45.8488 24.84H46.8088C46.9688 24.84 47.0488 24.92 47.0488 25.08V32.76C47.0488 32.92 46.9688 33 46.8088 33H45.9288C45.7688 33 45.6888 32.92 45.6888 32.76V27.48H45.6088L43.1288 32.76C43.0861 32.8453 43.0328 32.9093 42.9688 32.952C42.9154 32.984 42.8088 33 42.6488 33H42.2488C42.0888 33 41.9768 32.984 41.9128 32.952C41.8594 32.9093 41.8114 32.8453 41.7688 32.76L39.2888 27.48H39.2088V32.76C39.2088 32.92 39.1288 33 38.9688 33H38.0888C37.9288 33 37.8488 32.92 37.8488 32.76V25.08C37.8488 24.92 37.9288 24.84 38.0888 24.84H39.0488C39.2088 24.84 39.3154 24.8613 39.3688 24.904C39.4328 24.936 39.4861 24.9947 39.5288 25.08L42.4088 31.24H42.4888ZM55.0144 27.16C55.0144 26.7973 54.9024 26.5093 54.6784 26.296C54.465 26.072 54.177 25.96 53.8144 25.96H51.8144C51.4517 25.96 51.1584 26.072 50.9344 26.296C50.721 26.5093 50.6144 26.7973 50.6144 27.16V30.68C50.6144 31.0427 50.721 31.336 50.9344 31.56C51.1584 31.7733 51.4517 31.88 51.8144 31.88H53.8144C54.177 31.88 54.465 31.7733 54.6784 31.56C54.9024 31.336 55.0144 31.0427 55.0144 30.68V27.16ZM56.3744 30.68C56.3744 31.48 56.1557 32.0933 55.7184 32.52C55.2917 32.9467 54.657 33.16 53.8144 33.16H51.8144C50.9717 33.16 50.3317 32.9467 49.8944 32.52C49.4677 32.0933 49.2544 31.48 49.2544 30.68V27.16C49.2544 26.36 49.4677 25.7467 49.8944 25.32C50.3317 24.8933 50.9717 24.68 51.8144 24.68H53.8144C54.657 24.68 55.2917 24.8933 55.7184 25.32C56.1557 25.7467 56.3744 26.36 56.3744 27.16V30.68ZM59.9338 29.48V32.76C59.9338 32.92 59.8538 33 59.6938 33H58.8138C58.6538 33 58.5738 32.92 58.5738 32.76V25.08C58.5738 24.92 58.6538 24.84 58.8138 24.84H59.6938C59.8538 24.84 59.9338 24.92 59.9338 25.08V28.28H64.0138V25.08C64.0138 24.92 64.0938 24.84 64.2538 24.84H65.1338C65.2938 24.84 65.3738 24.92 65.3738 25.08V32.76C65.3738 32.92 65.2938 33 65.1338 33H64.2538C64.0938 33 64.0138 32.92 64.0138 32.76V29.48H59.9338ZM69.5731 33C69.4131 33 69.3331 32.92 69.3331 32.76V26.12H66.8531C66.6931 26.12 66.6131 26.04 66.6131 25.88V25.08C66.6131 24.92 66.6931 24.84 66.8531 24.84H73.1731C73.3331 24.84 73.4131 24.92 73.4131 25.08V25.88C73.4131 26.04 73.3331 26.12 73.1731 26.12H70.6931V32.76C70.6931 32.92 70.6131 33 70.4531 33H69.5731ZM86.7012 21.8C86.8612 21.8 86.9412 21.88 86.9412 22.04V32.76C86.9412 32.92 86.8612 33 86.7012 33H85.6612C85.5012 33 85.4212 32.92 85.4212 32.76V23.24H79.5012V32.76C79.5012 32.92 79.4212 33 79.2612 33H78.2212C78.0612 33 77.9812 32.92 77.9812 32.76V22.04C77.9812 21.88 78.0612 21.8 78.2212 21.8H86.7012ZM91.4575 32.76C91.4575 32.92 91.3775 33 91.2175 33H90.1775C90.0175 33 89.9375 32.92 89.9375 32.76V22.04C89.9375 21.88 90.0175 21.8 90.1775 21.8H91.2175C91.3775 21.8 91.4575 21.88 91.4575 22.04V26.44H94.4975L96.8975 22.04C96.9402 21.9547 96.9882 21.896 97.0415 21.864C97.0948 21.8213 97.1802 21.8 97.2975 21.8H98.4175C98.5988 21.8 98.6522 21.88 98.5775 22.04L95.7775 27.08L98.8975 32.76C98.9722 32.92 98.9188 33 98.7375 33H97.6175C97.5002 33 97.4148 32.984 97.3615 32.952C97.3082 32.9093 97.2602 32.8453 97.2175 32.76L94.5775 27.88H91.4575V32.76Z" fill="#1B1C21"/>
</g>
</svg>
