<svg width="240" height="160" viewBox="0 0 240 160" fill="none" xmlns="http://www.w3.org/2000/svg">
<rect x="0.5" y="0.5" width="239" height="159" rx="5.5" fill="white" stroke="#EAEAEA"/>
<mask id="mask0_0_779" style="mask-type:luminance" maskUnits="userSpaceOnUse" x="0" y="0" width="240" height="160">
<rect x="0.5" y="0.5" width="239" height="159" rx="5.5" fill="white" stroke="white"/>
</mask>
<g mask="url(#mask0_0_779)">
<rect x="185" y="105" width="38" height="38" rx="19" stroke="#FF3E79" stroke-width="2"/>
<path fill-rule="evenodd" clip-rule="evenodd" d="M205.5 124L201.707 120.207C201.317 119.817 201.317 119.183 201.707 118.793L201.793 118.707C202.183 118.317 202.817 118.317 203.207 118.707L207.793 123.293C208.183 123.683 208.183 124.317 207.793 124.707L203.207 129.293C202.817 129.683 202.183 129.683 201.793 129.293L201.707 129.207C201.317 128.817 201.317 128.183 201.707 127.793L205.5 124Z" fill="#FF3E79"/>
<path d="M23.68 28.04C24.5867 28.04 25.04 27.5867 25.04 26.68V24.6C25.04 23.6933 24.5867 23.24 23.68 23.24H19.12V28.04H23.68ZM19.12 29.48V32.76C19.12 32.92 19.04 33 18.88 33H17.84C17.68 33 17.6 32.92 17.6 32.76V22.04C17.6 21.88 17.68 21.8 17.84 21.8H23.68C25.6 21.8 26.56 22.7333 26.56 24.6V26.68C26.56 28.5467 25.6 29.48 23.68 29.48H19.12ZM34.2875 28.2V27.16C34.2875 26.7973 34.1755 26.5093 33.9515 26.296C33.7382 26.072 33.4502 25.96 33.0875 25.96H31.1675C30.8048 25.96 30.5115 26.072 30.2875 26.296C30.0742 26.5093 29.9675 26.7973 29.9675 27.16V28.2H34.2875ZM29.9675 29.48V30.68C29.9675 31.0427 30.0742 31.336 30.2875 31.56C30.5115 31.7733 30.8048 31.88 31.1675 31.88H33.0875C33.4502 31.88 33.7382 31.7733 33.9515 31.56C34.1755 31.336 34.2875 31.0427 34.2875 30.68V30.6C34.2875 30.44 34.3675 30.36 34.5275 30.36H35.4075C35.5675 30.36 35.6475 30.44 35.6475 30.6V30.68C35.6475 31.48 35.4288 32.0933 34.9915 32.52C34.5648 32.9467 33.9302 33.16 33.0875 33.16H31.1675C30.3248 33.16 29.6848 32.9467 29.2475 32.52C28.8208 32.0933 28.6075 31.48 28.6075 30.68V27.16C28.6075 26.36 28.8208 25.7467 29.2475 25.32C29.6848 24.8933 30.3248 24.68 31.1675 24.68H33.0875C33.9302 24.68 34.5648 24.8933 34.9915 25.32C35.4288 25.7467 35.6475 26.36 35.6475 27.16V29.24C35.6475 29.4 35.5675 29.48 35.4075 29.48H29.9675ZM42.4888 31.24L45.3688 25.08C45.4114 24.9947 45.4594 24.936 45.5128 24.904C45.5768 24.8613 45.6888 24.84 45.8488 24.84H46.8088C46.9688 24.84 47.0488 24.92 47.0488 25.08V32.76C47.0488 32.92 46.9688 33 46.8088 33H45.9288C45.7688 33 45.6888 32.92 45.6888 32.76V27.48H45.6088L43.1288 32.76C43.0861 32.8453 43.0328 32.9093 42.9688 32.952C42.9154 32.984 42.8088 33 42.6488 33H42.2488C42.0888 33 41.9768 32.984 41.9128 32.952C41.8594 32.9093 41.8114 32.8453 41.7688 32.76L39.2888 27.48H39.2088V32.76C39.2088 32.92 39.1288 33 38.9688 33H38.0888C37.9288 33 37.8488 32.92 37.8488 32.76V25.08C37.8488 24.92 37.9288 24.84 38.0888 24.84H39.0488C39.2088 24.84 39.3154 24.8613 39.3688 24.904C39.4328 24.936 39.4861 24.9947 39.5288 25.08L42.4088 31.24H42.4888ZM55.0144 27.16C55.0144 26.7973 54.9024 26.5093 54.6784 26.296C54.465 26.072 54.177 25.96 53.8144 25.96H51.8144C51.4517 25.96 51.1584 26.072 50.9344 26.296C50.721 26.5093 50.6144 26.7973 50.6144 27.16V30.68C50.6144 31.0427 50.721 31.336 50.9344 31.56C51.1584 31.7733 51.4517 31.88 51.8144 31.88H53.8144C54.177 31.88 54.465 31.7733 54.6784 31.56C54.9024 31.336 55.0144 31.0427 55.0144 30.68V27.16ZM56.3744 30.68C56.3744 31.48 56.1557 32.0933 55.7184 32.52C55.2917 32.9467 54.657 33.16 53.8144 33.16H51.8144C50.9717 33.16 50.3317 32.9467 49.8944 32.52C49.4677 32.0933 49.2544 31.48 49.2544 30.68V27.16C49.2544 26.36 49.4677 25.7467 49.8944 25.32C50.3317 24.8933 50.9717 24.68 51.8144 24.68H53.8144C54.657 24.68 55.2917 24.8933 55.7184 25.32C56.1557 25.7467 56.3744 26.36 56.3744 27.16V30.68ZM59.9338 29.48V32.76C59.9338 32.92 59.8538 33 59.6938 33H58.8138C58.6538 33 58.5738 32.92 58.5738 32.76V25.08C58.5738 24.92 58.6538 24.84 58.8138 24.84H59.6938C59.8538 24.84 59.9338 24.92 59.9338 25.08V28.28H64.0138V25.08C64.0138 24.92 64.0938 24.84 64.2538 24.84H65.1338C65.2938 24.84 65.3738 24.92 65.3738 25.08V32.76C65.3738 32.92 65.2938 33 65.1338 33H64.2538C64.0938 33 64.0138 32.92 64.0138 32.76V29.48H59.9338ZM69.5731 33C69.4131 33 69.3331 32.92 69.3331 32.76V26.12H66.8531C66.6931 26.12 66.6131 26.04 66.6131 25.88V25.08C66.6131 24.92 66.6931 24.84 66.8531 24.84H73.1731C73.3331 24.84 73.4131 24.92 73.4131 25.08V25.88C73.4131 26.04 73.3331 26.12 73.1731 26.12H70.6931V32.76C70.6931 32.92 70.6131 33 70.4531 33H69.5731ZM85.3044 31.24L88.1844 25.08C88.227 24.9947 88.275 24.936 88.3284 24.904C88.3924 24.8613 88.5044 24.84 88.6644 24.84H89.6244C89.7844 24.84 89.8644 24.92 89.8644 25.08V32.76C89.8644 32.92 89.7844 33 89.6244 33H88.7444C88.5844 33 88.5044 32.92 88.5044 32.76V27.48H88.4244L85.9444 32.76C85.9017 32.8453 85.8484 32.9093 85.7844 32.952C85.731 32.984 85.6244 33 85.4644 33H85.0644C84.9044 33 84.7924 32.984 84.7284 32.952C84.675 32.9093 84.627 32.8453 84.5844 32.76L82.1044 27.48H82.0244V32.76C82.0244 32.92 81.9444 33 81.7844 33H80.9044C80.7444 33 80.6644 32.92 80.6644 32.76V25.08C80.6644 24.92 80.7444 24.84 80.9044 24.84H81.8644C82.0244 24.84 82.131 24.8613 82.1844 24.904C82.2484 24.936 82.3017 24.9947 82.3444 25.08L85.2244 31.24H85.3044ZM97.83 27.16C97.83 26.7973 97.718 26.5093 97.494 26.296C97.2807 26.072 96.9927 25.96 96.63 25.96H94.63C94.2673 25.96 93.974 26.072 93.75 26.296C93.5367 26.5093 93.43 26.7973 93.43 27.16V30.68C93.43 31.0427 93.5367 31.336 93.75 31.56C93.974 31.7733 94.2673 31.88 94.63 31.88H96.63C96.9927 31.88 97.2807 31.7733 97.494 31.56C97.718 31.336 97.83 31.0427 97.83 30.68V27.16ZM99.19 30.68C99.19 31.48 98.9713 32.0933 98.534 32.52C98.1073 32.9467 97.4727 33.16 96.63 33.16H94.63C93.7873 33.16 93.1473 32.9467 92.71 32.52C92.2833 32.0933 92.07 31.48 92.07 30.68V27.16C92.07 26.36 92.2833 25.7467 92.71 25.32C93.1473 24.8933 93.7873 24.68 94.63 24.68H96.63C97.4727 24.68 98.1073 24.8933 98.534 25.32C98.9713 25.7467 99.19 26.36 99.19 27.16V30.68ZM102.749 29.48V32.76C102.749 32.92 102.669 33 102.509 33H101.629C101.469 33 101.389 32.92 101.389 32.76V25.08C101.389 24.92 101.469 24.84 101.629 24.84H102.509C102.669 24.84 102.749 24.92 102.749 25.08V28.28H106.829V25.08C106.829 24.92 106.909 24.84 107.069 24.84H107.949C108.109 24.84 108.189 24.92 108.189 25.08V32.76C108.189 32.92 108.109 33 107.949 33H107.069C106.909 33 106.829 32.92 106.829 32.76V29.48H102.749ZM117.269 24.84C117.429 24.84 117.509 24.92 117.509 25.08V32.76C117.509 32.92 117.429 33 117.269 33H116.389C116.229 33 116.149 32.92 116.149 32.76V26.92H116.069L112.229 32.76C112.175 32.8453 112.122 32.9093 112.069 32.952C112.015 32.984 111.909 33 111.749 33H110.789C110.629 33 110.549 32.92 110.549 32.76V25.08C110.549 24.92 110.629 24.84 110.789 24.84H111.669C111.829 24.84 111.909 24.92 111.909 25.08V30.92H111.989L115.829 25.08C115.882 24.9947 115.935 24.936 115.989 24.904C116.042 24.8613 116.149 24.84 116.309 24.84H117.269ZM121.704 33C121.544 33 121.464 32.92 121.464 32.76V26.12H118.984C118.824 26.12 118.744 26.04 118.744 25.88V25.08C118.744 24.92 118.824 24.84 118.984 24.84H125.304C125.464 24.84 125.544 24.92 125.544 25.08V25.88C125.544 26.04 125.464 26.12 125.304 26.12H122.824V32.76C122.824 32.92 122.744 33 122.584 33H121.704ZM132.389 27.16C132.389 26.7973 132.277 26.5093 132.053 26.296C131.84 26.072 131.552 25.96 131.189 25.96H129.189C128.827 25.96 128.533 26.072 128.309 26.296C128.096 26.5093 127.989 26.7973 127.989 27.16V30.68C127.989 31.0427 128.096 31.336 128.309 31.56C128.533 31.7733 128.827 31.88 129.189 31.88H131.189C131.552 31.88 131.84 31.7733 132.053 31.56C132.277 31.336 132.389 31.0427 132.389 30.68V27.16ZM133.749 30.68C133.749 31.48 133.531 32.0933 133.093 32.52C132.667 32.9467 132.032 33.16 131.189 33.16H129.189C128.347 33.16 127.707 32.9467 127.269 32.52C126.843 32.0933 126.629 31.48 126.629 30.68V27.16C126.629 26.36 126.843 25.7467 127.269 25.32C127.707 24.8933 128.347 24.68 129.189 24.68H131.189C132.032 24.68 132.667 24.8933 133.093 25.32C133.531 25.7467 133.749 26.36 133.749 27.16V30.68ZM140.349 31.72C140.711 31.72 140.999 31.6133 141.213 31.4C141.437 31.176 141.549 30.8827 141.549 30.52V27.16C141.549 26.7973 141.437 26.5093 141.213 26.296C140.999 26.072 140.711 25.96 140.349 25.96H138.989C138.509 25.96 138.109 26.12 137.789 26.44C137.469 26.76 137.309 27.16 137.309 27.64V31.72H140.349ZM137.309 33V35.8C137.309 35.96 137.229 36.04 137.069 36.04H136.189C136.029 36.04 135.949 35.96 135.949 35.8V25.08C135.949 24.92 136.029 24.84 136.189 24.84H137.069C137.229 24.84 137.309 24.92 137.309 25.08V25.64H137.389C137.474 25.4587 137.597 25.2987 137.757 25.16C137.895 25.0427 138.077 24.936 138.301 24.84C138.525 24.7333 138.807 24.68 139.149 24.68H140.349C141.191 24.68 141.826 24.8933 142.253 25.32C142.69 25.7467 142.909 26.36 142.909 27.16V30.52C142.909 31.32 142.69 31.9333 142.253 32.36C141.826 32.7867 141.191 33 140.349 33H137.309ZM150.708 27.16C150.708 26.7973 150.596 26.5093 150.372 26.296C150.159 26.072 149.871 25.96 149.508 25.96H147.508C147.145 25.96 146.852 26.072 146.628 26.296C146.415 26.5093 146.308 26.7973 146.308 27.16V30.68C146.308 31.0427 146.415 31.336 146.628 31.56C146.852 31.7733 147.145 31.88 147.508 31.88H149.508C149.871 31.88 150.159 31.7733 150.372 31.56C150.596 31.336 150.708 31.0427 150.708 30.68V27.16ZM152.068 30.68C152.068 31.48 151.849 32.0933 151.412 32.52C150.985 32.9467 150.351 33.16 149.508 33.16H147.508C146.665 33.16 146.025 32.9467 145.588 32.52C145.161 32.0933 144.948 31.48 144.948 30.68V27.16C144.948 26.36 145.161 25.7467 145.588 25.32C146.025 24.8933 146.665 24.68 147.508 24.68H149.508C150.351 24.68 150.985 24.8933 151.412 25.32C151.849 25.7467 152.068 26.36 152.068 27.16V30.68ZM158.668 31.72C158.988 31.72 159.238 31.6293 159.42 31.448C159.612 31.256 159.708 31 159.708 30.68V30.52C159.708 30.2 159.612 29.9493 159.42 29.768C159.238 29.576 158.988 29.48 158.668 29.48H155.628V31.72H158.668ZM158.188 28.2C158.508 28.2 158.758 28.1093 158.94 27.928C159.132 27.736 159.228 27.48 159.228 27.16C159.228 26.84 159.132 26.5893 158.94 26.408C158.758 26.216 158.508 26.12 158.188 26.12H155.628V28.2H158.188ZM154.508 33C154.348 33 154.268 32.92 154.268 32.76V25.08C154.268 24.92 154.348 24.84 154.508 24.84H158.188C159.788 24.84 160.588 25.6133 160.588 27.16C160.588 27.48 160.529 27.7413 160.412 27.944C160.305 28.136 160.188 28.2907 160.06 28.408C159.91 28.536 159.74 28.6267 159.548 28.68V28.76C159.825 28.8133 160.076 28.9147 160.3 29.064C160.492 29.192 160.668 29.3733 160.828 29.608C160.988 29.8427 161.068 30.1467 161.068 30.52V30.68C161.068 32.2267 160.268 33 158.668 33H154.508Z" fill="#1B1C21"/>
</g>
</svg>
